<?xml version="1.0" encoding="UTF-8" standalone="no"?>
<!-- Created with Inkscape (http://www.inkscape.org/) -->
<svg
   xmlns:dc="http://purl.org/dc/elements/1.1/"
   xmlns:cc="http://creativecommons.org/ns#"
   xmlns:rdf="http://www.w3.org/1999/02/22-rdf-syntax-ns#"
   xmlns:svg="http://www.w3.org/2000/svg"
   xmlns="http://www.w3.org/2000/svg"
   xmlns:sodipodi="http://sodipodi.sourceforge.net/DTD/sodipodi-0.dtd"
   xmlns:inkscape="http://www.inkscape.org/namespaces/inkscape"
   width="501"
   height="356"
   id="svg2"
   sodipodi:version="0.32"
   inkscape:version="0.46"
   version="1.0"
   sodipodi:docname="IAU logo.svg"
   inkscape:output_extension="org.inkscape.output.svg.inkscape">
  <defs
     id="defs4">
    <inkscape:perspective
       sodipodi:type="inkscape:persp3d"
       inkscape:vp_x="0 : 526.18109 : 1"
       inkscape:vp_y="0 : 1000 : 0"
       inkscape:vp_z="744.09448 : 526.18109 : 1"
       inkscape:persp3d-origin="372.04724 : 350.78739 : 1"
       id="perspective10" />
    <inkscape:perspective
       id="perspective2447"
       inkscape:persp3d-origin="372.04724 : 350.78739 : 1"
       inkscape:vp_z="744.09448 : 526.18109 : 1"
       inkscape:vp_y="0 : 1000 : 0"
       inkscape:vp_x="0 : 526.18109 : 1"
       sodipodi:type="inkscape:persp3d" />
  </defs>
  <sodipodi:namedview
     id="base"
     pagecolor="#ffffff"
     bordercolor="#666666"
     borderopacity="1.0"
     gridtolerance="10000"
     guidetolerance="10"
     objecttolerance="10"
     inkscape:pageopacity="0.0"
     inkscape:pageshadow="2"
     inkscape:zoom="0.98994949"
     inkscape:cx="251.69267"
     inkscape:cy="117.00361"
     inkscape:document-units="px"
     inkscape:current-layer="layer1"
     showgrid="false"
     borderlayer="true"
     inkscape:window-width="1280"
     inkscape:window-height="975"
     inkscape:window-x="-4"
     inkscape:window-y="-4" />
  <metadata
     id="metadata7">
    <rdf:RDF>
      <cc:Work
         rdf:about="">
        <dc:format>image/svg+xml</dc:format>
        <dc:type
           rdf:resource="http://purl.org/dc/dcmitype/StillImage" />
      </cc:Work>
    </rdf:RDF>
  </metadata>
  <g
     inkscape:label="Layer 1"
     inkscape:groupmode="layer"
     id="layer1">
    <path
       style="fill:#000000"
       d="M 0,353.09046 L 500.95403,353.09046 L 500.95403,355.28214 L 0,355.28214 L 0,353.09046 z M 54.791847,297.98551 L 75.076102,297.98551 L 75.266152,297.49025 L 75.456201,296.995 L 75.44662,245.85498 L 75.216588,245.51096 C 75.090066,245.32176 74.775217,245.16013 74.516912,245.15179 C 73.19574,245.10914 69.949808,244.6387 67.15915,244.08541 C 63.789608,243.41733 63.648339,243.37888 59.175195,241.91199 L 56.20078,240.93657 L 52.756721,239.2729 L 49.312662,237.60922 L 46.716437,235.86613 C 45.28853,234.90744 42.903676,233.09951 41.416813,231.84851 L 38.713414,229.57397 L 36.379501,226.91265 L 34.045556,224.25134 L 31.951224,221.12037 L 29.856892,217.98941 L 28.199673,214.54535 C 26.394986,210.79493 26.335404,210.65657 25.435346,208.12688 C 24.031109,204.18025 23.375767,201.69019 22.304102,196.22922 L 21.474616,192.00242 L 21.271228,49.387066 L 43.520381,49.387066 L 43.531309,190.12384 L 43.978191,192.78516 C 44.732064,197.27462 45.011909,198.49982 45.875116,201.08984 C 47.017228,204.51673 48.311819,207.17809 50.364384,210.31855 L 52.103759,212.97987 L 54.621899,215.49768 L 57.140069,218.01549 L 59.801387,219.76841 C 64.116386,222.61057 68.406651,224.46729 73.358863,225.63577 L 74.862132,225.99047 L 75.159167,225.80689 L 75.456201,225.62331 L 75.459864,132.95736 L 54.948395,132.82723 L 54.770651,121.87081 L 115.5473,122.03162 L 115.37598,132.82723 L 95.181266,132.99245 L 95.181266,224.68403 L 95.416088,224.82556 L 95.65091,224.96709 L 98.35171,224.08393 C 101.9351,222.91217 105.25407,221.31162 108.23522,219.31772 L 110.67765,217.68412 L 113.35694,215.0189 L 116.03626,212.35368 L 117.50397,210.28223 L 118.97167,208.21078 L 120.5018,205.11614 L 122.03193,202.0215 L 122.9643,199.04709 C 123.47709,197.41116 124.05516,195.29776 124.24887,194.35064 C 124.44259,193.40353 124.77193,191.92415 124.98077,191.06313 L 125.36049,189.49765 L 125.70815,49.543614 L 146.84769,49.543614 C 146.64828,96.112246 147.07497,142.68537 146.68939,189.25329 C 145.98884,196.5618 144.86917,202.22128 143.04839,207.65723 L 142.10457,210.4751 L 140.27064,214.25402 L 138.43671,218.03293 L 136.55644,220.84396 L 134.67617,223.65499 L 132.35046,226.31519 L 130.02475,228.97539 L 127.55335,231.03307 C 126.19411,232.16479 123.90666,233.88962 122.47017,234.86603 L 119.85839,236.6413 L 116.0517,238.48659 L 112.24501,240.33188 L 108.95058,241.42423 C 105.35514,242.6164 99.365516,244.13192 98.238338,244.1347 C 97.84847,244.13565 97.000355,244.28339 96.353624,244.463 L 95.177728,244.78955 L 95.337814,297.82896 L 115.53252,297.99418 L 115.53252,308.63078 L 54.791847,308.63078 L 54.791847,297.98551 z M 75.451411,235.71929 L 75.44662,229.26088 L 75.216588,228.92842 L 74.986557,228.59597 L 73.107979,228.18493 C 63.188025,226.01441 54.889565,220.80755 49.1254,213.13711 L 47.595517,211.10129 L 46.044282,208.06634 L 44.493046,205.03139 L 43.567784,202.26961 L 42.642491,199.50784 L 42.142789,196.85097 C 41.867953,195.38969 41.508863,193.41918 41.344769,192.47207 L 41.046483,190.75004 L 41.006939,51.900246 L 23.776844,51.891836 L 23.962948,191.37623 L 24.337912,193.09826 C 24.544118,194.04537 24.942846,196.06635 25.223975,197.58931 C 26.914914,206.75011 30.459665,214.87091 36.042014,222.37276 L 38.138851,225.19063 L 40.438262,227.40619 C 49.180786,235.82999 59.307572,240.60049 71.990225,242.26965 C 73.269693,242.43804 74.383878,242.64316 74.466191,242.72548 C 74.548504,242.80779 74.804929,242.71821 75.036026,242.52641 L 75.456201,242.1777 L 75.451411,235.71929 z M 99.564614,241.30756 C 100.16732,241.15982 101.36492,240.87355 102.22593,240.6714 C 104.60218,240.11351 108.89551,238.8077 110.36644,238.1955 C 125.31985,231.97183 134.06635,223.31276 139.74795,209.10767 L 140.92103,206.17476 L 141.96824,202.06301 C 142.54422,199.80154 143.18318,196.75366 143.38817,195.28993 C 143.59315,193.82621 143.88931,191.7856 144.04636,190.75524 L 144.33184,188.88186 L 144.34014,51.88126 L 128.21292,52.048384 L 128.09056,183.23573 L 127.89303,186.52324 C 127.23005,197.55646 123.72622,206.91131 117.38612,214.57557 L 115.72279,216.58629 L 113.35769,218.56679 C 110.2608,221.16013 107.83427,222.75545 104.57415,224.34154 L 101.91284,225.63631 L 98.625325,226.69715 L 95.337814,227.758 L 95.253591,234.87983 L 95.169368,242.00168 L 96.819073,241.78892 C 97.726426,241.67191 98.961903,241.45529 99.564614,241.30756 z M 159.50477,308.22767 L 159.35006,307.82453 C 167.12249,287.26191 176.54591,267.18808 184.25719,246.67149 L 184.48415,245.92252 L 167.5065,246.72319 L 167.5065,246.46266 C 167.5065,246.31936 168.29413,244.08106 169.25681,241.48865 C 192.78123,178.36233 215.23556,114.83487 238.83118,51.735288 C 239.34831,50.357664 239.85101,48.983954 239.9483,48.682599 L 240.12519,48.134681 L 260.82885,48.134681 L 261.00396,48.682599 C 261.10027,48.983954 261.29346,49.512304 261.43326,49.85671 C 261.57306,50.201116 261.99669,51.328263 262.37468,52.36148 C 286.16452,116.75503 311.01225,180.75463 334.91495,245.10572 L 335.0626,245.60884 L 315.60104,245.29678 L 315.60104,245.73735 L 340.60206,308.16114 L 340.17672,308.39978 L 339.75134,308.63845 L 328.0747,308.55633 L 316.39803,308.47423 L 297.88014,261.50979 L 202.02543,261.35126 L 201.70206,261.74362 C 194.58842,276.54667 190.32174,293.60501 183.07396,308.23941 L 182.77154,308.63078 L 171.21551,308.63078 L 159.65944,308.63078 L 159.50477,308.22767 z M 185.35719,243.40932 L 185.61947,243.06667 C 202.36001,199.79313 221.99117,157.30113 238.28203,113.8849 C 238.50328,113.28219 238.81884,112.61295 238.98327,112.39769 L 239.28223,112.00632 L 261.45504,112.00632 L 261.63528,112.55424 C 261.73442,112.8556 261.99737,113.52484 262.21962,114.04145 C 278.76803,154.21219 294.36947,194.77617 311.03976,234.89661 C 311.42224,235.75762 312.05763,237.30745 312.45173,238.34067 C 312.84582,239.37389 313.43457,240.81804 313.76006,241.54991 L 314.35185,242.88056 C 319.96986,242.64623 325.64626,243.22929 331.25585,242.76756 L 259.05617,50.795999 L 241.93761,50.795999 C 218.32682,114.98187 194.75408,179.18296 171.34644,243.44532 L 171.18423,244.16662 L 185.35719,243.40932 z M 291.49263,243.97202 L 251.25976,140.72103 L 250.71771,140.38004 L 250.17567,140.03905 L 249.74019,140.50339 L 249.3047,140.96773 C 237.95328,175.60827 220.47053,209.22301 208.52212,243.78752 L 208.52212,244.13295 L 291.49263,244.13295 L 291.49263,243.97202 z M 409.84302,308.28854 C 406.03702,307.86479 402.58466,307.36797 401.07632,307.02695 C 397.74626,306.27401 396.7286,306.00481 394.63421,305.32292 C 387.51024,303.00344 381.71645,299.80745 376.17274,295.13915 L 373.5901,292.96435 L 371.89058,291.0133 C 363.89564,281.8353 359.30925,271.7997 357.3941,259.29314 L 356.91848,256.18716 L 356.5989,250.08178 L 356.27932,243.9764 L 356.4601,114.98074 L 375.87207,114.98074 L 376.21172,254.93477 L 376.74264,257.75264 C 378.67698,268.01982 381.46432,274.0289 387.07412,280.02578 L 388.97534,282.05821 L 391.63403,284.05358 L 394.29271,286.04896 L 397.4497,287.61629 L 400.60668,289.18361 L 403.58109,290.10342 C 407.2507,291.23821 408.8377,291.5761 412.76483,292.05879 L 415.84319,292.43715 L 419.65295,292.05333 C 423.59968,291.6557 427.61217,291.02162 429.64636,290.47412 C 430.29212,290.30031 431.27837,290.03477 431.83803,289.88404 C 434.75368,289.09875 438.94563,287.11175 442.40503,284.87522 L 445.06635,283.15466 L 447.68684,280.62928 L 450.30736,278.10389 L 452.13027,275.66466 L 453.95321,273.22541 L 455.67853,269.71583 C 457.95057,265.09412 458.76904,262.4423 460.28896,254.77822 L 460.69254,252.7431 L 461.03426,114.98074 L 479.50694,114.98074 L 479.50694,254.30858 L 479.09919,256.81335 C 478.87495,258.19097 478.55494,260.16348 478.38809,261.1967 C 476.67429,271.80828 472.11545,281.91027 465.69801,289.31675 L 463.57851,291.76291 L 461.05398,293.96341 C 459.66553,295.17368 457.30663,296.98363 455.81203,297.98548 L 453.09454,299.80704 L 449.8632,301.37039 C 446.51708,302.98926 442.65641,304.51576 440.21335,305.18594 C 439.43844,305.39853 438.45219,305.69031 438.02168,305.83436 C 435.69797,306.6119 429.31842,307.62521 422.43393,308.3103 L 419.21346,308.63078 L 415.70236,308.59039 C 413.77125,308.56816 411.13454,308.43234 409.84302,308.28854 z M 387.28972,245.99744 L 387.45663,232.07874 L 407.80789,231.76565 L 407.80789,63.31985 L 387.30009,63.154745 L 387.30009,49.387066 L 450.54553,49.387066 L 450.54553,63.154745 L 430.19061,63.31985 L 430.19427,231.91352 L 450.38898,232.07874 L 450.38898,245.85498 L 387.28972,245.99744 z M 447.88421,234.58351 L 427.6895,234.41829 L 427.53296,60.81508 L 448.04076,60.649975 L 448.04076,51.891836 L 389.7872,51.891836 L 389.9614,60.501983 L 410.46921,60.667088 L 410.46921,234.41841 L 389.9614,234.58351 L 389.9614,243.03711 L 448.05795,243.21791 L 447.88421,234.58351 z M 0,0.85714291 L 500.95403,0.85714291 L 500.95403,3.361913 L 0,3.361913 L 0,0.85714291 z"
       id="path2471"
       sodipodi:nodetypes="cccccccccccssccccccccccccsccccccsccccccccccccccccccccccccccccscccccccccccccccccccscccccccccccccccccccccccccscccssccccsscccscccccccccccccccccccccccccccccscccccccccccccccccccccccccccscccccccccccccccccccsscccccccccccccccccccccsscccccccccccccsccccccssccccccccccccccccccccccccccccccccccc" />
  </g>
</svg>
